<?xml version="1.0" encoding="UTF-8" standalone="no"?>
<svg
   xmlns:dc="http://purl.org/dc/elements/1.1/"
   xmlns:cc="http://creativecommons.org/ns#"
   xmlns:rdf="http://www.w3.org/1999/02/22-rdf-syntax-ns#"
   xmlns:svg="http://www.w3.org/2000/svg"
   xmlns="http://www.w3.org/2000/svg"
   xmlns:xlink="http://www.w3.org/1999/xlink"
   xmlns:sodipodi="http://sodipodi.sourceforge.net/DTD/sodipodi-0.dtd"
   xmlns:inkscape="http://www.inkscape.org/namespaces/inkscape"
   width="256px"
   height="416px"
   viewBox="0 0 256 416"
   version="1.1"
   preserveAspectRatio="xMidYMid"
   id="svg3069"
   inkscape:version="0.48.4 r9939"
   sodipodi:docname="coroutines.svg"
   inkscape:export-filename="/home/axel22/workspaces/scala/super-storm-enroute/coroutines/coroutines-128.png"
   inkscape:export-xdpi="37.208019"
   inkscape:export-ydpi="37.208019">
  <metadata
     id="metadata3097">
    <rdf:RDF>
      <cc:Work
         rdf:about="">
        <dc:format>image/svg+xml</dc:format>
        <dc:type
           rdf:resource="http://purl.org/dc/dcmitype/StillImage" />
        <dc:title></dc:title>
      </cc:Work>
    </rdf:RDF>
  </metadata>
  <sodipodi:namedview
     pagecolor="#ffffff"
     bordercolor="#666666"
     borderopacity="1"
     objecttolerance="10"
     gridtolerance="10"
     guidetolerance="10"
     inkscape:pageopacity="0"
     inkscape:pageshadow="2"
     inkscape:window-width="796"
     inkscape:window-height="864"
     id="namedview3095"
     showgrid="false"
     inkscape:zoom="0.41706731"
     inkscape:cx="201.34566"
     inkscape:cy="147.58496"
     inkscape:window-x="800"
     inkscape:window-y="16"
     inkscape:window-maximized="0"
     inkscape:current-layer="svg3069" />
  <defs
     id="defs3071">
    <linearGradient
       x1="0%"
       y1="50%"
       x2="100%"
       y2="50%"
       id="linearGradient-1">
      <stop
         stop-color="#4F4F4F"
         offset="0%"
         id="stop3074" />
      <stop
         stop-color="#000000"
         offset="100%"
         id="stop3076" />
    </linearGradient>
    <linearGradient
       x1="0%"
       y1="50%"
       x2="100%"
       y2="50%"
       id="linearGradient-2">
      <stop
         stop-color="#C40000"
         offset="0%"
         id="stop3079" />
      <stop
         stop-color="#FF0000"
         offset="100%"
         id="stop3081" />
    </linearGradient>
    <linearGradient
       inkscape:collect="always"
       xlink:href="#linearGradient-2"
       id="linearGradient3110"
       gradientUnits="userSpaceOnUse"
       gradientTransform="matrix(1.2649111,0,0,-0.79056942,0,672)"
       x1="-48.922848"
       y1="343.51675"
       x2="202.38577"
       y2="425.01012" />
    <linearGradient
       inkscape:collect="always"
       xlink:href="#linearGradient-2"
       id="linearGradient3116"
       gradientUnits="userSpaceOnUse"
       gradientTransform="matrix(1.2649111,0,0,-0.79056942,0,416)"
       x1="28.587599"
       y1="220.03551"
       x2="261.87003"
       y2="348.66852" />
    <linearGradient
       inkscape:collect="always"
       xlink:href="#linearGradient-1"
       id="linearGradient3122"
       gradientUnits="userSpaceOnUse"
       gradientTransform="matrix(1.6329932,0,0,-0.61237244,0,544)"
       x1="0"
       y1="444.17414"
       x2="156.76734"
       y2="444.17414" />
  </defs>
  <path
     inkscape:connector-curvature="0"
     style="fill:url(#linearGradient3122)"
     id="path3085"
     d="m 0,256 0,32 c 0,5.39378 116.37689,14.42844 192.19911,32 l 0,0 C 228.82844,311.50933 256,301.03111 256,288 l 0,0 0,-32 c 0,-13.024 -27.17156,-23.50933 -63.80089,-32 l 0,0 C 116.37689,241.57511 0,250.60978 0,256" />
  <path
     inkscape:connector-curvature="0"
     style="fill:url(#linearGradient3116)"
     id="path3089"
     d="M 0.42385651,201.32484 0,288 c 0,-8 156.70137,-10.70983 253.60231,-56.80691 l 39.29603,-27.07692 11.2849,12.88003 34.21445,-96.28976 -96.38695,-1.25018 11.54273,14.25073 C 155.31858,200.29463 0.34489558,191.96807 0.34489558,199.96807"
     sodipodi:nodetypes="ccccccccc" />
  <path
     inkscape:connector-curvature="0"
     style="fill:url(#linearGradient3110)"
     id="path3093"
     d="m -14.78721,336.80882 -3.83809,-17.2176 -53.379643,72.1992 L 3.9476147,429.06697 0,416 c 55.101347,-32.58368 256,-24 256,-64 l 0,0 0,-96 c 0,40 -143.18358,33.52314 -227.86969,65.69543"
     sodipodi:nodetypes="ccccccccc" />
</svg>
